<?xml version="1.0" encoding="UTF-8" standalone="no"?>
<svg
   enable-background="new 0 0 32 32"
   id="Слой_1"
   version="1.1"
   viewBox="0 0 32 32"
   xml:space="preserve"
   sodipodi:docname="BLNGS.svg"
   inkscape:version="1.1.2 (0a00cf5339, 2022-02-04)"
   xmlns:inkscape="http://www.inkscape.org/namespaces/inkscape"
   xmlns:sodipodi="http://sodipodi.sourceforge.net/DTD/sodipodi-0.dtd"
   xmlns="http://www.w3.org/2000/svg"
   xmlns:svg="http://www.w3.org/2000/svg"><defs
     id="defs18" /><sodipodi:namedview
     id="namedview16"
     pagecolor="#ffffff"
     bordercolor="#666666"
     borderopacity="1.0"
     inkscape:pageshadow="2"
     inkscape:pageopacity="0.0"
     inkscape:pagecheckerboard="0"
     showgrid="false"
     inkscape:zoom="27.21875"
     inkscape:cx="15.98163"
     inkscape:cy="16.01837"
     inkscape:window-width="2560"
     inkscape:window-height="1358"
     inkscape:window-x="1920"
     inkscape:window-y="0"
     inkscape:window-maximized="1"
     inkscape:current-layer="Слой_1" /><path
     clip-rule="evenodd"
     d="M15.294,0.295L15.294,0.295L15.294,0.295  l-9.991,9.97c-0.66,0.634-0.162,1.748,0.734,1.723h4.976c0,0.004-0.002,0.008-0.002,0.012v19c0,0.55,0.45,1,1,1h8c0.55,0,1-0.45,1-1  V12c0-0.004-0.002-0.008-0.002-0.012h4.972c0.892,0.024,1.376-1.082,0.742-1.715l-9.999-9.977  C16.328-0.098,15.688-0.098,15.294,0.295z M23.574,9.983H19.01V10v1v0.988h0.002c0,0.004-0.002,0.008-0.002,0.012v1v17h-6V13v-1  c0-0.004-0.002-0.008-0.002-0.012h0.002V11v-1V9.983H8.442l7.566-7.55L23.574,9.983z"
     fill="#121313"
     fill-rule="evenodd"
     id="Arrow_Up"
     style="fill:#d9d9d9;fill-opacity:1" /><g
     id="g3" /><g
     id="g5" /><g
     id="g7" /><g
     id="g9" /><g
     id="g11" /><g
     id="g13" /></svg>
