<?xml version="1.0" encoding="UTF-8" standalone="no"?>
<!-- Created with Inkscape (http://www.inkscape.org/) -->

<svg
   version="1.1"
   id="svg2"
   xml:space="preserve"
   width="2666.6667"
   height="2666.6667"
   viewBox="0 0 2666.6667 2666.6667"
   sodipodi:docname="Book.svg"
   inkscape:version="1.1.2 (0a00cf5339, 2022-02-04)"
   xmlns:inkscape="http://www.inkscape.org/namespaces/inkscape"
   xmlns:sodipodi="http://sodipodi.sourceforge.net/DTD/sodipodi-0.dtd"
   xmlns="http://www.w3.org/2000/svg"
   xmlns:svg="http://www.w3.org/2000/svg"><defs
     id="defs6" /><sodipodi:namedview
     id="namedview4"
     pagecolor="#ffffff"
     bordercolor="#666666"
     borderopacity="1.0"
     inkscape:pageshadow="2"
     inkscape:pageopacity="0.0"
     inkscape:pagecheckerboard="0"
     showgrid="false"
     inkscape:zoom="0.32662499"
     inkscape:cx="698.04824"
     inkscape:cy="1331.8026"
     inkscape:window-width="2560"
     inkscape:window-height="1358"
     inkscape:window-x="1920"
     inkscape:window-y="0"
     inkscape:window-maximized="1"
     inkscape:current-layer="g8" /><g
     id="g8"
     inkscape:groupmode="layer"
     inkscape:label="ink_ext_XXXXXX"
     transform="matrix(1.3333333,0,0,-1.3333333,0,2666.6667)"><path
       d="m 1919.7633,358.78429 c -56.4643,2.8875 -165.3283,5.83516 -296.9253,-3.52918 -120.6788,-8.60236 -230.9773,-25.22556 -330.3376,-49.70919 86.2106,39.04147 171.2456,64.60791 242.0948,81.17096 159.9687,37.39719 284.971,38.58027 286.1863,38.60031 21.0794,0.10021 38.1144,17.34509 38.1144,38.56021 v 1136.3132 h 60.8674 z m -1839.129271,0 V 1600.1906 H 141.49343 V 463.8774 c 0,-21.21512 17.0369,-38.45995 38.12231,-38.56021 3.62614,-0.02 270.67751,-3.20833 528.7393,-119.87153 -99.47786,24.52374 -209.93771,41.18705 -330.79382,49.80945 -131.61698,9.36434 -240.45901,6.41668 -296.927191,3.52918 z M 218.12456,1673.2806 h 67.34063 V 606.16715 c 0,-20.29272 15.61832,-37.09639 35.72945,-38.47999 211.35025,-14.37733 384.11195,-90.9363 513.47764,-227.55134 8.6788,-9.16382 16.84155,-18.30759 24.55013,-27.35109 -130.53519,79.42643 -269.82878,124.36321 -377.98143,149.50856 -115.67392,26.86983 -212.38231,35.75292 -263.11642,38.70058 z m 143.97176,143.9341 c 46.98244,-6.7777 129.71825,-22.8795 221.11096,-59.7554 178.52575,-71.9871 304.86083,-186.0235 375.86356,-339.1214 -0.25502,-1.7845 -0.43047,-3.6094 -0.43047,-5.434 V 310.15791 C 940.40009,335.7444 918.63934,362.95513 892.84781,390.46662 798.47252,491.14828 630.89701,614.14789 362.09632,641.5993 Z M 1414.9924,1756.577 c 91.8888,37.3371 175.828,53.6995 223.3066,60.5774 V 641.5993 C 1369.5061,614.14789 1201.9266,491.14828 1107.5474,390.46662 1081.7459,362.95513 1059.9891,335.7444 1041.7587,310.15791 V 1412.9039 c 0,1.8246 -0.1793,3.6495 -0.4383,5.4542 70.7098,152.416 196.2899,266.1516 373.672,338.2189 z m 367.2763,-83.2964 V 500.99387 c -50.7262,-2.94766 -147.4365,-11.83075 -263.1144,-38.70058 -108.1467,-25.14535 -247.4543,-70.08213 -377.9755,-149.5286 6.9733,8.20131 14.3253,16.48283 22.1155,24.7844 129.5648,138.21922 303.1415,215.66054 515.9083,230.13807 20.1031,1.3836 35.7234,18.18727 35.7234,38.47999 V 1673.2806 Z m 175.8081,4.0305 h -99.1809 v 34.5297 c 0,21.2953 -17.1545,38.5602 -38.3137,38.5602 H 1714.926 v 109.9257 c 0,10.6075 -4.3433,20.7539 -12.014,28.0529 -7.6906,7.2789 -18.0311,11.0487 -28.531,10.4271 -5.3993,-0.3209 -133.7887,-8.4821 -285.7081,-69.7412 -173.0785,-69.8216 -305.8312,-180.8501 -388.4753,-323.7816 -82.64218,142.9315 -215.40083,253.96 -388.48527,323.7816 -151.90544,61.2591 -280.29874,69.4203 -285.69013,69.7412 -10.53375,0.6216 -20.85431,-3.1482 -28.53096,-10.4271 -7.67467,-7.299 -12.02605,-17.4454 -12.02605,-28.0529 V 1750.401 H 179.809 c -21.16112,0 -38.31557,-17.2649 -38.31557,-38.5602 v -34.5297 H 42.320448 c -21.161127,0 -38.3155602,-17.2649 -38.3155602,-38.5603 V 317.67745 c 0,-10.80809 4.5107657,-21.13492 12.4245132,-28.43389 7.913761,-7.29898 18.503292,-10.90835 29.214344,-9.98596 5.618536,0.48125 565.986905,46.78158 918.119145,-153.43877 0.12124,-0.0602 0.24109,-0.12033 0.36261,-0.20052 1.71744,-0.94244 3.42681,-1.96511 5.13826,-2.94766 0.69345,-0.74192 1.41867,-1.44375 2.16786,-2.10547 1.81903,-1.8047 3.76155,-3.50912 5.95518,-4.93282 6.33577,-4.1508 13.59604,-6.23621 20.86425,-6.23621 0.6515,0 1.29701,0.10021 1.94655,0.14036 0.6575,-0.0401 1.295,-0.14036 1.9525,-0.14036 7.2523,0 14.5245,2.08541 20.8602,6.23621 2.1917,1.4237 4.1443,3.12812 5.9573,4.93282 0.7372,0.66172 1.4744,1.36355 2.1718,2.10547 1.6934,0.98255 3.4068,2.00522 5.1403,2.94766 0.1199,0.0802 0.239,0.14036 0.3586,0.20052 352.1342,200.24041 912.4927,153.94008 918.1112,153.43877 10.6991,-0.94245 21.2986,2.68698 29.2083,9.98596 7.9297,7.29897 12.4325,17.6258 12.4325,28.43389 V 1638.7508 c 0,21.2954 -17.1544,38.5603 -38.3135,38.5603"
       style="fill:#d9d8d8;fill-opacity:1;fill-rule:nonzero;stroke:#d9d9d9;stroke-width:3.65025009;stroke-miterlimit:4;stroke-dasharray:none;stroke-opacity:1"
       id="path14" /></g></svg>
