<?xml version="1.0" encoding="UTF-8" standalone="no"?>
<!-- Uploaded to: SVG Repo, www.svgrepo.com, Generator: SVG Repo Mixer Tools -->

<svg
   version="1.1"
   id="Icons"
   viewBox="0 0 32 32"
   xml:space="preserve"
   sodipodi:docname="DataSource.svg"
   inkscape:version="1.1.2 (0a00cf5339, 2022-02-04)"
   xmlns:inkscape="http://www.inkscape.org/namespaces/inkscape"
   xmlns:sodipodi="http://sodipodi.sourceforge.net/DTD/sodipodi-0.dtd"
   xmlns="http://www.w3.org/2000/svg"
   xmlns:svg="http://www.w3.org/2000/svg"><defs
   id="defs17" /><sodipodi:namedview
   id="namedview15"
   pagecolor="#ffffff"
   bordercolor="#666666"
   borderopacity="1.0"
   inkscape:pageshadow="2"
   inkscape:pageopacity="0.0"
   inkscape:pagecheckerboard="0"
   showgrid="false"
   inkscape:zoom="27.1875"
   inkscape:cx="16.036782"
   inkscape:cy="16"
   inkscape:window-width="2560"
   inkscape:window-height="1408"
   inkscape:window-x="1920"
   inkscape:window-y="0"
   inkscape:window-maximized="1"
   inkscape:current-layer="Icons" />
<style
   type="text/css"
   id="style2">
	.st0{fill:none;stroke:#000000;stroke-width:2;stroke-linecap:round;stroke-linejoin:round;stroke-miterlimit:10;}
</style>

<g
   id="g947"
   transform="translate(-1.5163883,-0.45298357)"><g
     id="g10"
     style="fill:#d9d9d9;fill-opacity:1">
	<ellipse
   cx="14"
   cy="8"
   rx="11"
   ry="6"
   id="ellipse4"
   style="fill:#d9d9d9;fill-opacity:1" />
	<path
   d="M 14,24 C 9.2,24 5.2,22.6 3,20.4 V 24 c 0,3.4 4.8,6 11,6 0.9,0 1.8,-0.1 2.7,-0.2 -1.5,-1.5 -2.4,-3.6 -2.7,-5.8 0,0 0,0 0,0 z"
   id="path6"
   style="fill:#d9d9d9;fill-opacity:1" />
	<path
   d="M 3,12.4 V 16 c 0,3.4 4.8,6 11,6 0,0 0,0 0.1,0 0.2,-2.4 1.4,-4.6 3,-6.2 -1,0.1 -2,0.2 -3.1,0.2 C 9.2,16 5.2,14.6 3,12.4 Z"
   id="path8"
   style="fill:#d9d9d9;fill-opacity:1" />
</g><path
     d="m 25,15.1 v 8.5 l 1.3,-1.3 c 0.4,-0.4 1,-0.4 1.4,0 0.4,0.4 0.4,1 0,1.4 l -3,3 c -0.1,0.1 -0.2,0.2 -0.3,0.2 C 24.3,27 24.1,27 24,27 c -0.1,0 -0.3,0 -0.4,-0.1 -0.1,-0.1 -0.2,-0.1 -0.3,-0.2 l -3,-3 c -0.4,-0.4 -0.4,-1 0,-1.4 0.4,-0.4 1,-0.4 1.4,0 l 1.3,1.3 v -8.5 c -3.9,0.5 -7,3.9 -7,7.9 0,4.4 3.6,8 8,8 4.4,0 8,-3.6 8,-8 0,-4.1 -3.1,-7.4 -7,-7.9 z"
     id="path12"
     style="fill:#d9d9d9;fill-opacity:1" /></g>
</svg>
