<?xml version="1.0" encoding="UTF-8" standalone="no"?>
<svg
   width="32px"
   height="32px"
   viewBox="0 0 32 32"
   version="1.1"
   id="svg11"
   sodipodi:docname="Folders.svg"
   inkscape:version="1.1.2 (0a00cf5339, 2022-02-04)"
   xmlns:inkscape="http://www.inkscape.org/namespaces/inkscape"
   xmlns:sodipodi="http://sodipodi.sourceforge.net/DTD/sodipodi-0.dtd"
   xmlns="http://www.w3.org/2000/svg"
   xmlns:svg="http://www.w3.org/2000/svg"
   xmlns:rdf="http://www.w3.org/1999/02/22-rdf-syntax-ns#"
   xmlns:cc="http://creativecommons.org/ns#"
   xmlns:dc="http://purl.org/dc/elements/1.1/"
   xmlns:sketch="http://www.bohemiancoding.com/sketch/ns">
  <sodipodi:namedview
     id="namedview13"
     pagecolor="#ffffff"
     bordercolor="#666666"
     borderopacity="1.0"
     inkscape:pageshadow="2"
     inkscape:pageopacity="0.0"
     inkscape:pagecheckerboard="0"
     showgrid="false"
     inkscape:zoom="27.21875"
     inkscape:cx="15.98163"
     inkscape:cy="15.98163"
     inkscape:window-width="2560"
     inkscape:window-height="1358"
     inkscape:window-x="1920"
     inkscape:window-y="0"
     inkscape:window-maximized="1"
     inkscape:current-layer="svg11" />
  <!-- Generator: Sketch 3.0.3 (7891) - http://www.bohemiancoding.com/sketch -->
  <title
     id="title2">icon 96 folders</title>
  <desc
     id="desc4">Created with Sketch.</desc>
  <defs
     id="defs6" />
  <path
     d="M 0.03180642,14.819308 V 8.8104629 c 0,-1.1014811 0.896666,-1.991155 2.00275998,-1.991155 H 13.031806 l 2,4.0000001 h 11.994141 c 1.108799,0 2.005859,0.893232 2.005859,1.995089 v 2.004911 z m 0,1 v 11.008845 c 0,1.099684 0.899712,1.991155 1.99328698,1.991155 H 27.038519 c 1.100862,0 1.993287,-0.892623 1.993287,-1.995089 V 15.819308 Z M 3.0318061,5.8193079 v -1.008845 c 0,-1.101481 0.8966663,-1.991155 2.0027601,-1.991155 H 16.031806 l 2,4 h 11.994141 c 1.108799,0 2.005859,0.8932319 2.005859,1.9950893 V 22.824219 c 0,1.102466 -0.892425,1.995089 -1.993287,1.995089 h -0.0067 V 12.819434 c 0,-1.656924 -1.342379,-3.0001261 -3.003351,-3.0001261 H 16.031806 l -2,-4 z"
     id="folders"
     sketch:type="MSShapeGroup"
     style="fill:#d9d9d9;fill-rule:evenodd;stroke:none;stroke-width:1;fill-opacity:1" />
  <metadata
     id="metadata1055">
    <rdf:RDF>
      <cc:Work
         rdf:about="">
        <dc:title>icon 96 folders</dc:title>
      </cc:Work>
    </rdf:RDF>
  </metadata>
</svg>
