<?xml version="1.0" encoding="UTF-8" standalone="no"?>
<!-- Generator: Adobe Illustrator 19.1.0, SVG Export Plug-In . SVG Version: 6.00 Build 0)  -->

<svg
   version="1.1"
   id="Capa_1"
   x="0px"
   y="0px"
   viewBox="0 0 486.982 486.982"
   style="enable-background:new 0 0 486.982 486.982;"
   xml:space="preserve"
   sodipodi:docname="Entity.svg"
   inkscape:version="1.1.2 (0a00cf5339, 2022-02-04)"
   xmlns:inkscape="http://www.inkscape.org/namespaces/inkscape"
   xmlns:sodipodi="http://sodipodi.sourceforge.net/DTD/sodipodi-0.dtd"
   xmlns="http://www.w3.org/2000/svg"
   xmlns:svg="http://www.w3.org/2000/svg"><defs
   id="defs39" /><sodipodi:namedview
   id="namedview37"
   pagecolor="#ffffff"
   bordercolor="#666666"
   borderopacity="1.0"
   inkscape:pageshadow="2"
   inkscape:pageopacity="0.0"
   inkscape:pagecheckerboard="0"
   showgrid="false"
   inkscape:zoom="1.7885672"
   inkscape:cx="243.21144"
   inkscape:cy="243.77055"
   inkscape:window-width="2560"
   inkscape:window-height="1358"
   inkscape:window-x="1920"
   inkscape:window-y="0"
   inkscape:window-maximized="1"
   inkscape:current-layer="Capa_1" />
<g
   id="g4"
   style="stroke:#d9d9d9;stroke-opacity:1;fill:#d9d9d9;fill-opacity:1">
	<path
   d="M131.35,422.969c14.6,14.6,38.3,14.6,52.9,0l181.1-181.1c5.2-5.2,9.2-11.4,11.8-18c18.2,5.1,35.9,7.8,51.5,7.7   c38.6-0.2,51.4-17.1,55.6-27.2c4.2-10,7.2-31-19.9-58.6c-0.3-0.3-0.6-0.6-0.9-0.9c-16.8-16.8-41.2-32.3-68.9-43.8   c-5.1-2.1-10.2-4-15.2-5.8v-0.3c-0.3-22.2-18.2-40.1-40.4-40.4l-108.5-1.5c-14.4-0.2-28.2,5.4-38.3,15.6l-181.2,181.1   c-14.6,14.6-14.6,38.3,0,52.9L131.35,422.969z M270.95,117.869c12.1-12.1,31.7-12.1,43.8,0c7.2,7.2,10.1,17.1,8.7,26.4   c11.9,8.4,26.1,16.2,41.3,22.5c5.4,2.2,10.6,4.2,15.6,5.9l-0.6-43.6c0.9,0.4,1.7,0.7,2.6,1.1c23.7,9.9,45,23.3,58.7,37   c0.2,0.2,0.4,0.4,0.6,0.6c13,13.3,14.4,21.8,13.3,24.4c-3.4,8.1-39.9,15.3-95.3-7.8c-16.2-6.8-31.4-15.2-43.7-24.3   c-0.4,0.5-0.9,1-1.3,1.5c-12.1,12.1-31.7,12.1-43.8,0C258.85,149.569,258.85,129.969,270.95,117.869z"
   id="path2"
   style="stroke:#d9d9d9;stroke-opacity:1;fill:#d9d9d9;fill-opacity:1" />
</g>
<g
   id="g6">
</g>
<g
   id="g8">
</g>
<g
   id="g10">
</g>
<g
   id="g12">
</g>
<g
   id="g14">
</g>
<g
   id="g16">
</g>
<g
   id="g18">
</g>
<g
   id="g20">
</g>
<g
   id="g22">
</g>
<g
   id="g24">
</g>
<g
   id="g26">
</g>
<g
   id="g28">
</g>
<g
   id="g30">
</g>
<g
   id="g32">
</g>
<g
   id="g34">
</g>
</svg>
