<?xml version="1.0" encoding="UTF-8" standalone="no"?>
<!-- Generator: Adobe Illustrator 19.1.0, SVG Export Plug-In . SVG Version: 6.00 Build 0)  -->

<svg
   version="1.1"
   id="Capa_1"
   x="0px"
   y="0px"
   viewBox="0 0 488 488"
   style="enable-background:new 0 0 488 488;"
   xml:space="preserve"
   sodipodi:docname="Paragraph.svg"
   inkscape:version="1.1.2 (0a00cf5339, 2022-02-04)"
   xmlns:inkscape="http://www.inkscape.org/namespaces/inkscape"
   xmlns:sodipodi="http://sodipodi.sourceforge.net/DTD/sodipodi-0.dtd"
   xmlns="http://www.w3.org/2000/svg"
   xmlns:svg="http://www.w3.org/2000/svg"><defs
   id="defs47">
	
</defs><sodipodi:namedview
   id="namedview45"
   pagecolor="#ffffff"
   bordercolor="#666666"
   borderopacity="1.0"
   inkscape:pageshadow="2"
   inkscape:pageopacity="0.0"
   inkscape:pagecheckerboard="0"
   showgrid="false"
   inkscape:zoom="1.7848361"
   inkscape:cx="117.65786"
   inkscape:cy="341.2078"
   inkscape:window-width="2560"
   inkscape:window-height="1408"
   inkscape:window-x="1920"
   inkscape:window-y="0"
   inkscape:window-maximized="1"
   inkscape:current-layer="Capa_1" />
<g
   id="g10"
   style="fill:#d9d9d9;fill-opacity:1"
   transform="translate(0.5789262,13.026936)">
		<path
   d="m 299.3,329.4 h -42.1 v 0 h -26.5 v 0 h -42.1 c -9.3,0 -17,7.6 -17,17 v 61.8 c 0,9.3 7.6,17 17,17 h 110.6 c 9.3,0 17,-7.6 17,-17 v -61.8 c 0.1,-9.3 -7.6,-17 -16.9,-17 z"
   id="path2"
   style="fill:#d9d9d9;fill-opacity:1" />
		<path
   d="m 471,329.4 h -42.1 v 0 h -26.5 v 0 h -42.1 c -9.3,0 -17,7.6 -17,17 v 61.8 c 0,9.3 7.6,17 17,17 H 471 c 9.3,0 17,-7.6 17,-17 v -61.8 c -0.1,-9.3 -7.7,-17 -17,-17 z"
   id="path4"
   style="fill:#d9d9d9;fill-opacity:1" />
		<path
   d="M 127.7,329.4 H 85.6 v 0 H 59.1 v 0 H 17 c -9.3,0 -17,7.6 -17,17 v 61.8 c 0,9.3 7.6,17 17,17 h 110.6 c 9.3,0 17,-7.6 17,-17 v -61.8 c 0,-9.3 -7.6,-17 -16.9,-17 z"
   id="path6"
   style="fill:#d9d9d9;fill-opacity:1" />
		<path
   d="m 85.6,276.5 h 145.2 v 29.6 h 26.5 v -29.6 h 145.2 v 29.6 H 429 V 263.2 C 429,255.9 423.1,250 415.8,250 H 257.2 v -43.8 h 74.5 c 11.3,0 20.6,-9.3 20.6,-20.6 V 83.4 c 0,-11.3 -9.3,-20.6 -20.6,-20.6 h -67.9 v 0 h -39.7 v 0 h -67.9 c -11.3,0 -20.6,9.3 -20.6,20.6 v 102.3 c 0,11.3 9.3,20.6 20.6,20.6 h 74.5 v 43.8 H 72.3 c -7.3,0 -13.2,5.9 -13.2,13.2 v 42.9 h 26.5 c 0,0 0,-29.7 0,-29.7 z m 83.6,-166 c 0,-3.3 2.7,-5.9 5.9,-5.9 h 137.8 c 3.3,0 5.9,2.7 5.9,5.9 v 7.8 c 0,3.3 -2.7,5.9 -5.9,5.9 H 175.1 c -3.3,0 -5.9,-2.7 -5.9,-5.9 z m 5.9,53.8 c -3.3,0 -5.9,-2.7 -5.9,-5.9 v -7.8 c 0,-3.3 2.7,-5.9 5.9,-5.9 h 137.8 c 3.3,0 5.9,2.7 5.9,5.9 v 7.8 c 0,3.3 -2.7,5.9 -5.9,5.9 z"
   id="path8"
   style="fill:#d9d9d9;fill-opacity:1" />
	</g>
<g
   id="g14">
</g>
<g
   id="g16">
</g>
<g
   id="g18">
</g>
<g
   id="g20">
</g>
<g
   id="g22">
</g>
<g
   id="g24">
</g>
<g
   id="g26">
</g>
<g
   id="g28">
</g>
<g
   id="g30">
</g>
<g
   id="g32">
</g>
<g
   id="g34">
</g>
<g
   id="g36">
</g>
<g
   id="g38">
</g>
<g
   id="g40">
</g>
<g
   id="g42">
</g>
<rect
   style="fill:#333333;fill-opacity:1;fill-rule:nonzero;stroke:#333333;stroke-width:24.016;stroke-linejoin:round;stroke-miterlimit:4;stroke-dasharray:none;stroke-opacity:1"
   id="rect1080"
   width="148.83499"
   height="73.256859"
   x="171.61649"
   y="109.93675" /></svg>
