<?xml version="1.0" encoding="UTF-8" standalone="no"?>
<svg
   viewBox="0 0 24 24"
   id="paper-plane"
   version="1.1"
   sodipodi:docname="Sec-Begin.svg"
   inkscape:version="1.1.2 (0a00cf5339, 2022-02-04)"
   xmlns:inkscape="http://www.inkscape.org/namespaces/inkscape"
   xmlns:sodipodi="http://sodipodi.sourceforge.net/DTD/sodipodi-0.dtd"
   xmlns="http://www.w3.org/2000/svg"
   xmlns:svg="http://www.w3.org/2000/svg">
  <defs
     id="defs7" />
  <sodipodi:namedview
     id="namedview5"
     pagecolor="#ffffff"
     bordercolor="#666666"
     borderopacity="1.0"
     inkscape:pageshadow="2"
     inkscape:pageopacity="0.0"
     inkscape:pagecheckerboard="0"
     showgrid="false"
     inkscape:zoom="36.291667"
     inkscape:cx="11.986223"
     inkscape:cy="11.986223"
     inkscape:window-width="2560"
     inkscape:window-height="1358"
     inkscape:window-x="1920"
     inkscape:window-y="0"
     inkscape:window-maximized="1"
     inkscape:current-layer="paper-plane" />
  <path
     d="m 14.68414,20.341594 7,-13.9999999 a 3,3 0 0 0 -3.9,-4.08 l -5.37,2.4 v 0 a 1.06,1.06 0 0 1 -0.82,0 l -5.3700002,-2.4 a 3,3 0 0 0 -4.22,2.74 3.14,3.14 0 0 0 0.32,1.35 l 7,13.9999999 a 3,3 0 0 0 5.3600002,0 z m -3.57,-0.89 L 4.1141398,5.4515941 a 1,1 0 0 1 1.3,-1.35 l 5.3700002,2.39 a 2,2 0 0 0 0.22,0.08 v 6.8899999 a 1,1 0 0 0 2,0 V 6.5715941 a 2,2 0 0 0 0.22,-0.08 l 5.37,-2.39 a 1,1 0 0 1 1.3,1.35 l -7,13.9999999 a 1,1 0 0 1 -1.78,0 z"
     id="path2"
     style="fill:#d9d9d9;fill-opacity:1" />
</svg>
