<?xml version="1.0" encoding="UTF-8" standalone="no"?>
<svg
   width="32px"
   height="32px"
   viewBox="0 0 32 32"
   version="1.1"
   id="svg11"
   sodipodi:docname="Text.svg"
   inkscape:version="1.1.2 (0a00cf5339, 2022-02-04)"
   xmlns:inkscape="http://www.inkscape.org/namespaces/inkscape"
   xmlns:sodipodi="http://sodipodi.sourceforge.net/DTD/sodipodi-0.dtd"
   xmlns="http://www.w3.org/2000/svg"
   xmlns:svg="http://www.w3.org/2000/svg"
   xmlns:rdf="http://www.w3.org/1999/02/22-rdf-syntax-ns#"
   xmlns:cc="http://creativecommons.org/ns#"
   xmlns:dc="http://purl.org/dc/elements/1.1/"
   xmlns:sketch="http://www.bohemiancoding.com/sketch/ns">
  <sodipodi:namedview
     id="namedview13"
     pagecolor="#ffffff"
     bordercolor="#666666"
     borderopacity="1.0"
     inkscape:pageshadow="2"
     inkscape:pageopacity="0.0"
     inkscape:pagecheckerboard="0"
     showgrid="false"
     inkscape:zoom="27.21875"
     inkscape:cx="15.98163"
     inkscape:cy="16.01837"
     inkscape:window-width="2560"
     inkscape:window-height="1358"
     inkscape:window-x="1920"
     inkscape:window-y="0"
     inkscape:window-maximized="1"
     inkscape:current-layer="svg11" />
  <!-- Generator: Sketch 3.0.3 (7891) - http://www.bohemiancoding.com/sketch -->
  <title
     id="title2">icon 69 document text</title>
  <desc
     id="desc4">Created with Sketch.</desc>
  <defs
     id="defs6" />
  <g
     id="Page-1"
     stroke="none"
     stroke-width="1"
     fill="none"
     fill-rule="evenodd"
     sketch:type="MSPage"
     style="fill:#d9d9d9;fill-opacity:1"
     transform="matrix(1.1857613,0,0,1.1824628,-3.7820492,-3.3584936)">
    <g
       id="icon-69-document-text"
       sketch:type="MSArtboardGroup"
       fill="#000000"
       style="fill:#d9d9d9;fill-opacity:1">
      <path
         d="M 19,3 H 9.0085302 C 7.8992496,3 7,3.8983383 7,5.0073299 V 27.99267 C 7,29.101288 7.8909254,30 8.9974219,30 H 24.002578 C 25.105724,30 26,29.109075 26,28.002578 V 11 H 21.005919 C 19.898081,11 19,10.113294 19,9.0018986 Z m -9,3 v 1 1 h 1 V 7 h 1 v 4 h 1 V 7 h 1 v 1 h 1 V 7 6 Z M 20,3 V 8.9970707 C 20,9.5509732 20.450975,10 20.990778,10 H 26 Z M 10,16 v 1 h 13 v -1 z m 0,-3 v 1 h 13 v -1 z m 0,6 v 1 h 13 v -1 z m 0,3 v 1 h 13 v -1 z m 0,3 v 1 h 13 v -1 z"
         id="document-text"
         sketch:type="MSShapeGroup"
         style="fill:#d9d9d9;fill-opacity:1" />
    </g>
  </g>
  <metadata
     id="metadata1128">
    <rdf:RDF>
      <cc:Work
         rdf:about="">
        <dc:title>icon 69 document text</dc:title>
      </cc:Work>
    </rdf:RDF>
  </metadata>
</svg>
