<?xml version="1.0" encoding="UTF-8" standalone="no"?>
<svg
   version="1.1"
   viewBox="0 0 129 129"
   enable-background="new 0 0 129 129"
   id="svg10"
   sodipodi:docname="Translation.svg"
   inkscape:version="1.1.2 (0a00cf5339, 2022-02-04)"
   xmlns:inkscape="http://www.inkscape.org/namespaces/inkscape"
   xmlns:sodipodi="http://sodipodi.sourceforge.net/DTD/sodipodi-0.dtd"
   xmlns="http://www.w3.org/2000/svg"
   xmlns:svg="http://www.w3.org/2000/svg">
  <defs
     id="defs14" />
  <sodipodi:namedview
     id="namedview12"
     pagecolor="#ffffff"
     bordercolor="#666666"
     borderopacity="1.0"
     inkscape:pageshadow="2"
     inkscape:pageopacity="0.0"
     inkscape:pagecheckerboard="0"
     showgrid="false"
     inkscape:zoom="6.751938"
     inkscape:cx="64.425947"
     inkscape:cy="64.425947"
     inkscape:window-width="2560"
     inkscape:window-height="1358"
     inkscape:window-x="1920"
     inkscape:window-y="0"
     inkscape:window-maximized="1"
     inkscape:current-layer="svg10" />
  <g
     id="g8"
     transform="matrix(1.1114761,0,0,1.1114037,-7.2826328,-7.0867052)"
     style="fill:#d9d9d9;fill-opacity:1">
    <g
       id="g6"
       style="fill:#d9d9d9;fill-opacity:1">
      <path
         d="m 88.6,94.4 c 0.8,0.8 1.8,1.2 2.9,1.2 1.1,0 2.1,-0.4 2.9,-1.2 l 27,-27 c 0.2,-0.2 0.4,-0.4 0.5,-0.6 0,0 0.1,-0.1 0.1,-0.2 0.1,-0.2 0.2,-0.4 0.3,-0.5 0,-0.1 0,-0.2 0.1,-0.2 0.1,-0.2 0.1,-0.3 0.2,-0.5 0.1,-0.3 0.1,-0.5 0.1,-0.8 0,-0.3 0,-0.5 -0.1,-0.8 0,-0.2 -0.1,-0.4 -0.2,-0.5 0,-0.1 0,-0.2 -0.1,-0.2 -0.1,-0.2 -0.2,-0.4 -0.3,-0.6 0,0 0,-0.1 -0.1,-0.1 -0.1,-0.2 -0.3,-0.4 -0.5,-0.6 l -27,-27 c -1.6,-1.6 -4.2,-1.6 -5.8,0 -1.6,1.6 -1.6,4.2 0,5.8 l 20,20 H 37.5 c -2.3,0 -4.1,1.8 -4.1,4.1 0,2.3 1.8,4.1 4.1,4.1 h 71.1 l -20,20 c -1.6,1.4 -1.6,4 0,5.6 z"
         id="path2"
         style="fill:#d9d9d9;fill-opacity:1" />
      <path
         d="m 10.5,122.5 h 54 c 2.3,0 4.1,-1.8 4.1,-4.1 V 78.1 c 0,-2.3 -1.8,-4.1 -4.1,-4.1 -2.3,0 -4.1,1.8 -4.1,4.1 v 36.2 H 14.6 V 14.6 h 45.8 v 36.2 c 0,2.3 1.8,4.1 4.1,4.1 2.3,0 4.1,-1.8 4.1,-4.1 V 10.5 c 0,-2.3 -1.8,-4.1 -4.1,-4.1 h -54 c -2.3,0 -4.1,1.8 -4.1,4.1 v 107.9 c 0.1,2.3 1.9,4.1 4.1,4.1 z"
         id="path4"
         style="fill:#d9d9d9;fill-opacity:1" />
    </g>
  </g>
</svg>
