<?xml version="1.0" encoding="UTF-8" standalone="no"?>
<!-- Uploaded to: SVG Repo, www.svgrepo.com, Generator: SVG Repo Mixer Tools -->

<svg
   width="800px"
   height="800px"
   viewBox="0 0 24 24"
   fill="none"
   version="1.1"
   id="svg4"
   sodipodi:docname="word-form.svg"
   inkscape:version="1.1.2 (0a00cf5339, 2022-02-04)"
   xmlns:inkscape="http://www.inkscape.org/namespaces/inkscape"
   xmlns:sodipodi="http://sodipodi.sourceforge.net/DTD/sodipodi-0.dtd"
   xmlns="http://www.w3.org/2000/svg"
   xmlns:svg="http://www.w3.org/2000/svg">
  <defs
     id="defs8" />
  <sodipodi:namedview
     id="namedview6"
     pagecolor="#ffffff"
     bordercolor="#666666"
     borderopacity="1.0"
     inkscape:pageshadow="2"
     inkscape:pageopacity="0.0"
     inkscape:pagecheckerboard="0"
     showgrid="false"
     inkscape:zoom="1.0875"
     inkscape:cx="400.91954"
     inkscape:cy="400"
     inkscape:window-width="2560"
     inkscape:window-height="1408"
     inkscape:window-x="1920"
     inkscape:window-y="0"
     inkscape:window-maximized="1"
     inkscape:current-layer="svg4" />
  <path
     d="m 8.4281959,13.225925 c 0,2.655681 2.1486381,4.80862 4.7990111,4.80862 1.325248,0 2.525001,-0.538205 3.393382,-1.408445 M 8.4281959,13.225925 h -4.799012 m 4.799012,0 c 0,-1.865745 1.0604377,-3.4832451 2.6103031,-4.2805384 M 3.6291839,13.225925 c 0,0.66395 -0.5371534,1.202155 -1.199753,1.202155 -0.6625996,0 -1.199753,-0.538205 -1.199753,-1.202155 0,-0.663951 0.5371534,-1.202155 1.199753,-1.202155 0.6625996,0 1.199753,0.538204 1.199753,1.202155 z M 20.777133,5.6608944 c -0.217155,-0.217554 -0.351408,-0.5180928 -0.351408,-0.8500559 0,-0.6639262 0.53713,-1.2021551 1.199753,-1.2021551 0.662624,0 1.199753,0.5382289 1.199753,1.2021551 0,0.6639262 -0.537129,1.2021551 -1.199753,1.2021551 -0.331251,0 -0.63119,-0.1345572 -0.848345,-0.3520992 z m 0,0 -4.156544,4.1648544 M 8.8738921,3.5229938 C 9.3158092,3.345724 9.6279489,2.9126476 9.6279489,2.4065283 c 0,-0.6639263 -0.5371534,-1.2021551 -1.199753,-1.2021551 -0.6625996,0 -1.199753,0.5382288 -1.199753,1.2021551 0,0.6639262 0.5371534,1.2021551 1.199753,1.2021551 0.1574916,0 0.3079046,-0.030402 0.4456962,-0.08569 z m 0,0 2.1646069,5.4223928 m 5.58209,7.6807134 c 0.868501,-0.87012 1.40563,-2.072275 1.40563,-3.400175 0,-1.327901 -0.537129,-2.530056 -1.40563,-3.4001762 m 0,6.8003512 4.156544,4.164867 m 0,0 c -0.217155,0.21759 -0.351408,0.518128 -0.351408,0.850044 0,0.66395 0.53713,1.202155 1.199753,1.202155 0.662624,0 1.199753,-0.538205 1.199753,-1.202155 0,-0.663951 -0.537129,-1.202156 -1.199753,-1.202156 -0.331251,0 -0.63119,0.134522 -0.848345,0.352112 z M 16.620589,9.8257488 c -0.868381,-0.870216 -2.068134,-1.4084449 -3.393382,-1.4084449 -0.788477,0 -1.532444,0.1905055 -2.188708,0.5280827"
     stroke="#000000"
     stroke-width="2.40191"
     stroke-linecap="round"
     stroke-linejoin="round"
     id="path2"
     style="fill:#d9d9d9;fill-opacity:0;stroke:#d9d9d9;stroke-opacity:1" />
</svg>
