<?xml version="1.0" encoding="UTF-8" standalone="no"?>
<svg
   version="1.0"
   width="350px"
   height="200px"
   viewBox="8 10 350 200"
   id="svg10"
   sodipodi:docname="Book.svg"
   inkscape:version="1.1.2 (0a00cf5339, 2022-02-04)"
   xmlns:inkscape="http://www.inkscape.org/namespaces/inkscape"
   xmlns:sodipodi="http://sodipodi.sourceforge.net/DTD/sodipodi-0.dtd"
   xmlns="http://www.w3.org/2000/svg"
   xmlns:svg="http://www.w3.org/2000/svg">
  <sodipodi:namedview
     id="namedview12"
     pagecolor="#ffffff"
     bordercolor="#666666"
     borderopacity="1.0"
     inkscape:pageshadow="2"
     inkscape:pageopacity="0.0"
     inkscape:pagecheckerboard="0"
     showgrid="false"
     inkscape:zoom="3.8028571"
     inkscape:cx="174.86852"
     inkscape:cy="99.924869"
     inkscape:window-width="2560"
     inkscape:window-height="1358"
     inkscape:window-x="1920"
     inkscape:window-y="0"
     inkscape:window-maximized="1"
     inkscape:current-layer="svg10" />
  <defs
     id="defs2" />
  <g
     style="stroke-linejoin:round;stroke-linecap:butt;fill:#000000;fill-opacity:0;stroke:#d9d9d9;stroke-opacity:1"
     id="g8">
    <path
       style="fill:#000000;stroke:#d9d9d9;stroke-width:16;fill-opacity:0;stroke-opacity:1"
       d="M 136.84,45.578 C 138.01,44.676 148.96,29.898 179.15,23.85 202.86,18.749 211.66,20.957 237.04,23.833 298.68,65.239 298.64,64.977 348.05,98.859 347.9,114.01 348.45,118.19 348.05,126.74 288.32,122.32 264.07,139.16 229.91,159.41 176.65,156.59 120.35,174.01 91.55,194.46 77.944,201.5 80.243,196.25 79.469,196.07 78.603,195.86 17.487,92.87 16.765,91.42 15.92,89.734 24.076,68.235 24.989,67.779 25.935,67.306 35.758,52.971 68.883,43.377 106.7,32.426 136.83,42.848 138.22,43.542 141.14,45.004 219.95,128.61 221.19,129.85 179.52,129.22 129.11,131.95 89.17,162.6 88.273,164.17 30.358,67.365 29.166,66.173 M 221.84,129.39 C 255.95,99.147 302.82,92.681 346.7,98.563 M 89.912,161.67 C 85.74,165.23 79.731,196.68 82.285,198"
       id="path4" />
    <path
       style="fill:#000000;stroke:#d9d9d9;stroke-width:10;fill-opacity:0;stroke-opacity:1"
       d="M 136.84,45.578 C 138.01,44.676 148.96,29.898 179.15,23.85 202.86,18.749 211.66,20.957 237.04,23.833 298.68,65.239 298.64,64.977 348.05,98.859 347.9,114.01 348.45,118.19 348.05,126.74 288.32,122.32 264.07,139.16 229.91,159.41 176.65,156.59 120.35,174.01 91.55,194.46 77.944,201.5 80.243,196.25 79.469,196.07 78.603,195.86 17.487,92.87 16.765,91.42 15.92,89.734 24.076,68.235 24.989,67.779 25.935,67.306 35.758,52.971 68.883,43.377 106.7,32.426 136.83,42.848 138.22,43.542 141.14,45.004 219.95,128.61 221.19,129.85 179.52,129.22 129.11,131.95 89.17,162.6 88.273,164.17 30.358,67.365 29.166,66.173 M 221.84,129.39 C 255.95,99.147 302.82,92.681 346.7,98.563 M 89.912,161.67 C 85.74,165.23 79.731,196.68 82.285,198"
       id="path6" />
  </g>
</svg>
