<?xml version="1.0" encoding="UTF-8" standalone="no"?>
<svg
   width="32px"
   height="32px"
   viewBox="0 0 32 32"
   version="1.1"
   id="svg11"
   sodipodi:docname="Field.svg"
   inkscape:version="1.1.2 (0a00cf5339, 2022-02-04)"
   xmlns:inkscape="http://www.inkscape.org/namespaces/inkscape"
   xmlns:sodipodi="http://sodipodi.sourceforge.net/DTD/sodipodi-0.dtd"
   xmlns="http://www.w3.org/2000/svg"
   xmlns:svg="http://www.w3.org/2000/svg"
   xmlns:rdf="http://www.w3.org/1999/02/22-rdf-syntax-ns#"
   xmlns:cc="http://creativecommons.org/ns#"
   xmlns:dc="http://purl.org/dc/elements/1.1/"
   xmlns:sketch="http://www.bohemiancoding.com/sketch/ns">
  <sodipodi:namedview
     id="namedview13"
     pagecolor="#ffffff"
     bordercolor="#666666"
     borderopacity="1.0"
     inkscape:pageshadow="2"
     inkscape:pageopacity="0.0"
     inkscape:pagecheckerboard="0"
     showgrid="false"
     inkscape:zoom="27.21875"
     inkscape:cx="15.98163"
     inkscape:cy="16.01837"
     inkscape:window-width="2560"
     inkscape:window-height="1358"
     inkscape:window-x="1920"
     inkscape:window-y="0"
     inkscape:window-maximized="1"
     inkscape:current-layer="svg11" />
  <!-- Generator: Sketch 3.0.3 (7891) - http://www.bohemiancoding.com/sketch -->
  <title
     id="title2">icon 133 inbox filled</title>
  <desc
     id="desc4">Created with Sketch.</desc>
  <defs
     id="defs6" />
  <g
     id="Page-1"
     stroke="none"
     stroke-width="1"
     fill="none"
     fill-rule="evenodd"
     sketch:type="MSPage"
     style="fill:#d9d9d9;fill-opacity:1"
     transform="matrix(1.275804,0,0,1.1679706,-5.0311994,-0.9069092)">
    <g
       id="icon-133-inbox-filled"
       sketch:type="MSArtboardGroup"
       fill="#000000"
       style="fill:#d9d9d9;fill-opacity:1">
      <path
         d="M 12,14 H 5.2249756 l 4.375,-7 H 23.400024 l 4.375,7 H 21 v 1.995119 C 21,17.1061 20.105737,18 19.002608,18 H 13.997392 C 12.895858,18 12,17.102384 12,15.995119 Z M 4,14 9,6 h 15 l 5,8 v 1 8 H 4 Z M 11,8 10.400024,9 H 22.599976 L 22,8 Z M 9.6999512,10 9.0999756,11 H 23.900024 L 23.300049,10 Z M 8.5,12 7.9000244,13 H 25.099976 L 24.5,12 Z"
         id="inbox-filled"
         sketch:type="MSShapeGroup"
         style="fill:#d9d9d9;fill-opacity:1" />
    </g>
  </g>
  <metadata
     id="metadata972">
    <rdf:RDF>
      <cc:Work
         rdf:about="">
        <dc:title>icon 133 inbox filled</dc:title>
      </cc:Work>
    </rdf:RDF>
  </metadata>
</svg>
