<?xml version="1.0" encoding="UTF-8" standalone="no"?>
<svg
   fill="#000000"
   width="128"
   height="128"
   viewBox="0 0 36 36"
   version="1.1"
   preserveAspectRatio="xMidYMid meet"
   id="svg14"
   sodipodi:docname="Highlighter.svg"
   inkscape:version="1.1.2 (0a00cf5339, 2022-02-04)"
   xmlns:inkscape="http://www.inkscape.org/namespaces/inkscape"
   xmlns:sodipodi="http://sodipodi.sourceforge.net/DTD/sodipodi-0.dtd"
   xmlns="http://www.w3.org/2000/svg"
   xmlns:svg="http://www.w3.org/2000/svg">
  <defs
     id="defs18" />
  <sodipodi:namedview
     id="namedview16"
     pagecolor="#ffffff"
     bordercolor="#666666"
     borderopacity="1.0"
     inkscape:pageshadow="2"
     inkscape:pageopacity="0.0"
     inkscape:pagecheckerboard="0"
     showgrid="false"
     inkscape:zoom="6.8046875"
     inkscape:cx="63.926521"
     inkscape:cy="63.926521"
     inkscape:window-width="2560"
     inkscape:window-height="1358"
     inkscape:window-x="1920"
     inkscape:window-y="0"
     inkscape:window-maximized="1"
     inkscape:current-layer="svg14" />
  <title
     id="title2">highlighter-line</title>
  <g
     id="g947"
     transform="matrix(1.1909553,0,0,1.1149307,-3.3729838,-1.9076449)">
    <path
       d="M 15.82,26.06 A 1,1 0 0 1 15.11,25.77 L 8.67,19.33 A 1,1 0 0 1 8.38,18.62 1,1 0 0 1 8.67,17.91 L 23,3.54 a 5.5543249,5.5543249 0 1 1 7.85,7.86 L 16.53,25.77 a 1,1 0 0 1 -0.71,0.29 z m -5,-7.44 5,5 L 29.48,10 a 3.54,3.54 0 0 0 0,-5 3.63,3.63 0 0 0 -5,0 z"
       class="clr-i-outline clr-i-outline-path-1"
       id="path4"
       style="fill:#d9d9d9;fill-opacity:1" />
    <path
       d="M 10.38,28.28 A 1,1 0 0 1 9.67,28 L 6.45,24.77 A 1,1 0 0 1 6.23,23.68 l 2.22,-5.44 a 1,1 0 0 1 1.63,-0.33 l 6.45,6.44 A 1,1 0 0 1 16.2,26 l -5.44,2.22 a 1.33,1.33 0 0 1 -0.38,0.06 z m -2.05,-4.46 2.29,2.28 3.43,-1.4 -4.31,-4.31 z"
       class="clr-i-outline clr-i-outline-path-2"
       id="path6"
       style="fill:#d9d9d9;fill-opacity:1" />
    <path
       d="m 8.94,30 h -5 A 1,1 0 0 1 3.1,28.45 l 3.22,-4.94 a 1,1 0 0 1 1.55,-0.16 l 3.21,3.22 a 1,1 0 0 1 0.06,1.35 L 9.7,29.64 A 1,1 0 0 1 8.94,30 Z M 5.78,28 H 8.47 L 9,27.34 7.3,25.64 Z"
       class="clr-i-outline clr-i-outline-path-3"
       id="path8"
       style="fill:#d9d9d9;fill-opacity:1" />
    <rect
       x="3.0599999"
       y="31"
       width="30"
       height="3"
       class="clr-i-outline clr-i-outline-path-4"
       id="rect10"
       style="fill:#d9d9d9;fill-opacity:1" />
  </g>
  <rect
     x="0"
     y="0"
     width="36"
     height="36"
     fill-opacity="0"
     id="rect12" />
</svg>
