<?xml version="1.0" encoding="UTF-8" standalone="no"?>
<svg
   enable-background="new 0 0 32 32"
   id="Слой_1"
   version="1.1"
   viewBox="0 0 32 32"
   xml:space="preserve"
   sodipodi:docname="Isa.svg"
   inkscape:version="1.1.2 (0a00cf5339, 2022-02-04)"
   xmlns:inkscape="http://www.inkscape.org/namespaces/inkscape"
   xmlns:sodipodi="http://sodipodi.sourceforge.net/DTD/sodipodi-0.dtd"
   xmlns="http://www.w3.org/2000/svg"
   xmlns:svg="http://www.w3.org/2000/svg"><defs
     id="defs18" /><sodipodi:namedview
     id="namedview16"
     pagecolor="#ffffff"
     bordercolor="#666666"
     borderopacity="1.0"
     inkscape:pageshadow="2"
     inkscape:pageopacity="0.0"
     inkscape:pagecheckerboard="0"
     showgrid="false"
     inkscape:zoom="27.21875"
     inkscape:cx="15.98163"
     inkscape:cy="15.98163"
     inkscape:window-width="2560"
     inkscape:window-height="1358"
     inkscape:window-x="1920"
     inkscape:window-y="0"
     inkscape:window-maximized="1"
     inkscape:current-layer="Слой_1" /><path
     clip-rule="evenodd"
     d="m 5.2788751,11.6035 c 0.394,0.39 1.034,0.391 1.428,0 l 8.2750009,-8.193 v 27.586 c 0,0.552 0.452,1 1.01,1 0.558,0 1.01,-0.448 1.01,-1 V 3.4105 l 8.275,8.192 c 0.394,0.391 1.034,0.391 1.428,0 0.394,-0.391 0.394,-1.024 0,-1.414 l -9.999,-9.89899998 c -0.39,-0.386 -1.039,-0.386 -1.429,0 L 5.2778751,10.1885 c -0.394,0.391 -0.394,1.024 10e-4,1.415 0.394,0.39 -0.395,-0.391 0,0 z"
     fill="#121313"
     fill-rule="evenodd"
     id="Arrow_Download"
     style="fill:#d8dada;fill-opacity:1" /><g
     id="g3" /><g
     id="g5" /><g
     id="g7" /><g
     id="g9" /><g
     id="g11" /><g
     id="g13" /></svg>
