<?xml version="1.0" encoding="UTF-8" standalone="no"?>
<svg
   viewBox="0 0 32 32"
   version="1.1"
   id="svg4"
   sodipodi:docname="Person.svg"
   inkscape:version="1.1.2 (0a00cf5339, 2022-02-04)"
   xmlns:inkscape="http://www.inkscape.org/namespaces/inkscape"
   xmlns:sodipodi="http://sodipodi.sourceforge.net/DTD/sodipodi-0.dtd"
   xmlns="http://www.w3.org/2000/svg"
   xmlns:svg="http://www.w3.org/2000/svg">
  <defs
     id="defs8" />
  <sodipodi:namedview
     id="namedview6"
     pagecolor="#ffffff"
     bordercolor="#666666"
     borderopacity="1.0"
     inkscape:pageshadow="2"
     inkscape:pageopacity="0.0"
     inkscape:pagecheckerboard="0"
     showgrid="false"
     inkscape:zoom="27.21875"
     inkscape:cx="15.98163"
     inkscape:cy="15.98163"
     inkscape:window-width="2560"
     inkscape:window-height="1358"
     inkscape:window-x="1920"
     inkscape:window-y="0"
     inkscape:window-maximized="1"
     inkscape:current-layer="svg4" />
  <path
     d="M 0.02157183,3.0519933 V 27.549217 H 32.056428 V 3.0519933 Z M 2.4857915,5.5017157 H 29.592208 V 25.099495 h -4.196874 c -0.09626,-0.167462 -0.05294,-0.397124 -0.192517,-0.535877 -0.466854,-0.464108 -1.126225,-0.688985 -1.771158,-0.688985 -0.644932,0 -1.304304,0.224877 -1.771158,0.688985 -0.139575,0.138753 -0.09626,0.368415 -0.192517,0.535877 H 10.610016 c -0.09626,-0.167462 -0.05294,-0.397124 -0.192517,-0.535877 -0.4668543,-0.464108 -1.1262252,-0.688985 -1.7711584,-0.688985 -0.6449318,0 -1.304304,0.224877 -1.7711578,0.688985 -0.1395747,0.138753 -0.096259,0.368415 -0.1925172,0.535877 H 2.4857915 Z M 11.11056,7.9514381 c -2.709679,0 -4.928439,2.2057069 -4.928439,4.8994449 0,1.363614 0.5871779,2.593261 1.5016338,3.483199 -1.6412085,1.105246 -2.7337437,2.990383 -2.7337437,5.090829 h 2.4642197 c 0,-2.028676 1.6556476,-3.674584 3.6963292,-3.674584 2.040682,0 3.69633,1.645908 3.69633,3.674584 h 2.46422 c 0,-2.100446 -1.092535,-3.985583 -2.733744,-5.090829 0.914457,-0.889938 1.501634,-2.119585 1.501634,-3.483199 0,-2.693738 -2.21876,-4.8994449 -4.92844,-4.8994449 z m 0,2.4497219 c 1.376499,0 2.46422,1.081324 2.46422,2.449723 0,1.3684 -1.087721,2.449722 -2.46422,2.449722 -1.3764968,0 -2.4642194,-1.081322 -2.4642194,-2.449722 0,-1.368399 1.0877226,-2.449723 2.4642194,-2.449723 z m 8.624769,1.224861 v 2.449723 h 7.392659 v -2.449723 z m 0,4.899445 v 2.449723 h 7.392659 v -2.449723 z"
     id="path2"
     style="fill:#d9d9d9;fill-opacity:1;stroke-width:1.22848" />
</svg>
