<?xml version="1.0" encoding="UTF-8" standalone="no"?>
<!-- Generator: Adobe Illustrator 19.1.0, SVG Export Plug-In . SVG Version: 6.00 Build 0)  -->

<svg
   version="1.1"
   id="Capa_1"
   x="0px"
   y="0px"
   viewBox="0 0 488 488"
   style="enable-background:new 0 0 488 488;"
   xml:space="preserve"
   sodipodi:docname="Section.svg"
   inkscape:version="1.1.2 (0a00cf5339, 2022-02-04)"
   xmlns:inkscape="http://www.inkscape.org/namespaces/inkscape"
   xmlns:sodipodi="http://sodipodi.sourceforge.net/DTD/sodipodi-0.dtd"
   xmlns="http://www.w3.org/2000/svg"
   xmlns:svg="http://www.w3.org/2000/svg"><defs
   id="defs47" /><sodipodi:namedview
   id="namedview45"
   pagecolor="#ffffff"
   bordercolor="#666666"
   borderopacity="1.0"
   inkscape:pageshadow="2"
   inkscape:pageopacity="0.0"
   inkscape:pagecheckerboard="0"
   showgrid="false"
   inkscape:zoom="1.7848361"
   inkscape:cx="243.71986"
   inkscape:cy="243.71986"
   inkscape:window-width="2560"
   inkscape:window-height="1358"
   inkscape:window-x="1920"
   inkscape:window-y="0"
   inkscape:window-maximized="1"
   inkscape:current-layer="Capa_1" />
<g
   id="g12"
   style="fill:#d9d9d9;fill-opacity:1">
	<g
   id="g10"
   style="fill:#d9d9d9;fill-opacity:1">
		<path
   d="M299.3,329.4h-42.1l0,0h-26.5l0,0h-42.1c-9.3,0-17,7.6-17,17v61.8c0,9.3,7.6,17,17,17h110.6c9.3,0,17-7.6,17-17v-61.8    C316.3,337.1,308.6,329.4,299.3,329.4z"
   id="path2"
   style="fill:#d9d9d9;fill-opacity:1" />
		<path
   d="M471,329.4h-42.1l0,0h-26.5l0,0h-42.1c-9.3,0-17,7.6-17,17v61.8c0,9.3,7.6,17,17,17H471c9.3,0,17-7.6,17-17v-61.8    C487.9,337.1,480.3,329.4,471,329.4z"
   id="path4"
   style="fill:#d9d9d9;fill-opacity:1" />
		<path
   d="M127.7,329.4H85.6l0,0H59.1l0,0H17c-9.3,0-17,7.6-17,17v61.8c0,9.3,7.6,17,17,17h110.6c9.3,0,17-7.6,17-17v-61.8    C144.6,337.1,137,329.4,127.7,329.4z"
   id="path6"
   style="fill:#d9d9d9;fill-opacity:1" />
		<path
   d="M85.6,276.5h145.2v29.6h26.5v-29.6h145.2v29.6H429v-42.9c0-7.3-5.9-13.2-13.2-13.2H257.2v-43.8h74.5    c11.3,0,20.6-9.3,20.6-20.6V83.4c0-11.3-9.3-20.6-20.6-20.6h-67.9l0,0h-39.7l0,0h-67.9c-11.3,0-20.6,9.3-20.6,20.6v102.3    c0,11.3,9.3,20.6,20.6,20.6h74.5v43.8H72.3c-7.3,0-13.2,5.9-13.2,13.2v42.9h26.5C85.6,306.2,85.6,276.5,85.6,276.5z M169.2,110.5    c0-3.3,2.7-5.9,5.9-5.9h137.8c3.3,0,5.9,2.7,5.9,5.9v7.8c0,3.3-2.7,5.9-5.9,5.9H175.1c-3.3,0-5.9-2.7-5.9-5.9L169.2,110.5    L169.2,110.5z M175.1,164.3c-3.3,0-5.9-2.7-5.9-5.9v-7.8c0-3.3,2.7-5.9,5.9-5.9h137.8c3.3,0,5.9,2.7,5.9,5.9v7.8    c0,3.3-2.7,5.9-5.9,5.9H175.1z"
   id="path8"
   style="fill:#d9d9d9;fill-opacity:1" />
	</g>
</g>
<g
   id="g14">
</g>
<g
   id="g16">
</g>
<g
   id="g18">
</g>
<g
   id="g20">
</g>
<g
   id="g22">
</g>
<g
   id="g24">
</g>
<g
   id="g26">
</g>
<g
   id="g28">
</g>
<g
   id="g30">
</g>
<g
   id="g32">
</g>
<g
   id="g34">
</g>
<g
   id="g36">
</g>
<g
   id="g38">
</g>
<g
   id="g40">
</g>
<g
   id="g42">
</g>
</svg>
