<?xml version="1.0" encoding="UTF-8" standalone="no"?>
<svg
   id="Слой_2"
   data-name="Слой 2"
   viewBox="0 0 100 100"
   version="1.1"
   sodipodi:docname="Sentence.svg"
   inkscape:version="1.1.2 (0a00cf5339, 2022-02-04)"
   xmlns:inkscape="http://www.inkscape.org/namespaces/inkscape"
   xmlns:sodipodi="http://sodipodi.sourceforge.net/DTD/sodipodi-0.dtd"
   xmlns="http://www.w3.org/2000/svg"
   xmlns:svg="http://www.w3.org/2000/svg"
   xmlns:rdf="http://www.w3.org/1999/02/22-rdf-syntax-ns#"
   xmlns:cc="http://creativecommons.org/ns#"
   xmlns:dc="http://purl.org/dc/elements/1.1/">
  <defs
     id="defs15" />
  <sodipodi:namedview
     id="namedview13"
     pagecolor="#ffffff"
     bordercolor="#666666"
     borderopacity="1.0"
     inkscape:pageshadow="2"
     inkscape:pageopacity="0.0"
     inkscape:pagecheckerboard="0"
     showgrid="false"
     inkscape:zoom="8.71"
     inkscape:cx="44.259472"
     inkscape:cy="50.057405"
     inkscape:window-width="2560"
     inkscape:window-height="1358"
     inkscape:window-x="1920"
     inkscape:window-y="0"
     inkscape:window-maximized="1"
     inkscape:current-layer="Слой_2" />
  <title
     id="title2">Монтажная область 13</title>
  <g
     id="g1024"
     transform="matrix(1.1427028,0,0,1.0896646,-4.9010565,-7.2229823)"
     style="stroke:#d9d9d9;stroke-opacity:1;fill:#d9d9d9;fill-opacity:1;stroke-width:2.70282713;stroke-miterlimit:4;stroke-dasharray:none">
    <path
       d="M 89.81,73 H 74 V 32 A 12,12 0 0 0 62,20 H 18.5 c -0.23,0 -0.46,-0.06 -0.7,-0.08 a 12.27,12.27 0 0 0 -9.13,3.26 11.2,11.2 0 0 0 -3.59,8.22 1.5,1.5 0 0 0 1.5,1.5 H 26 V 73.71 A 12.13,12.13 0 0 0 37.19,86 h 0.06 0.24 41.86 A 11.75,11.75 0 0 0 91.35,74.5 1.5,1.5 0 0 0 89.81,73 Z M 8.22,29.9 a 8.3,8.3 0 0 1 2.51,-4.53 9.17,9.17 0 0 1 5.42,-2.37 1.49,1.49 0 0 0 0.35,0 h 1.9 a 9.05,9.05 0 0 1 7.33,6.9 z M 37.37,83 A 9.13,9.13 0 0 1 29,73.71 V 32.19 A 12.45,12.45 0 0 0 25,23 h 37 a 9,9 0 0 1 9,9 V 73 H 48.42 a 1.5,1.5 0 0 0 -1.5,1.5 8.23,8.23 0 0 1 -2.65,6 9.26,9.26 0 0 1 -6.9,2.5 z m 42,0 H 46 l 0.31,-0.28 A 11.24,11.24 0 0 0 49.82,76 h 38.35 a 8.86,8.86 0 0 1 -8.82,7 z"
       id="path4"
       style="fill:#d9d9d9;fill-opacity:1;stroke:#d9d9d9;stroke-opacity:1;stroke-width:2.70282713;stroke-miterlimit:4;stroke-dasharray:none" />
    <path
       d="m 36.5,42 h 27 a 1.5,1.5 0 0 0 0,-3 h -27 a 1.5,1.5 0 0 0 0,3 z"
       id="path6"
       style="fill:#d9d9d9;fill-opacity:1;stroke:#d9d9d9;stroke-opacity:1;stroke-width:2.70282713;stroke-miterlimit:4;stroke-dasharray:none" />
    <path
       d="m 36.5,51 h 27 a 1.5,1.5 0 0 0 0,-3 h -27 a 1.5,1.5 0 0 0 0,3 z"
       id="path8"
       style="fill:#d9d9d9;fill-opacity:1;stroke:#d9d9d9;stroke-opacity:1;stroke-width:2.70282713;stroke-miterlimit:4;stroke-dasharray:none" />
    <path
       d="M 52,58.5 A 1.5,1.5 0 0 0 50.5,57 h -14 a 1.5,1.5 0 0 0 0,3 h 14 A 1.5,1.5 0 0 0 52,58.5 Z"
       id="path10"
       style="fill:#d9d9d9;fill-opacity:1;stroke:#d9d9d9;stroke-opacity:1;stroke-width:2.70282713;stroke-miterlimit:4;stroke-dasharray:none" />
  </g>
  <metadata
     id="metadata1042">
    <rdf:RDF>
      <cc:Work
         rdf:about="">
        <dc:title>Монтажная область 13</dc:title>
      </cc:Work>
    </rdf:RDF>
  </metadata>
</svg>
